<?xml version="1.0" encoding="UTF-8"?>
<svg id="_Шар_1" xmlns="http://www.w3.org/2000/svg" version="1.1" viewBox="0 0 73 79">
  <!-- Generator: Adobe Illustrator 29.8.2, SVG Export Plug-In . SVG Version: 2.1.1 Build 3)  -->
  <defs>
    <style>
      .st0 {
        fill: #ff5c28;
        fill-rule: evenodd;
      }
    </style>
  </defs>
  <path class="st0" d="M47.1,10.1c-3.3.3-5.9,1.6-8.2,3.9s-3.6,4.6-4.2,7.7c-.3,1.5-.3,4.5,0,6,.4,2,1.1,3.7,2.2,5.4.8,1.2,2.9,3.3,4.1,4.1,2.3,1.5,4.7,2.2,7.5,2.2s5.3-.7,7.7-2.3c1.1-.7,3.1-2.7,3.8-3.8,1.1-1.6,1.9-3.7,2.3-5.7.3-1.4.3-4.5,0-5.9-.6-2.9-1.9-5.2-4.1-7.5-1.5-1.6-3.1-2.6-5.2-3.3-1.8-.6-4-.9-5.8-.7h0ZM49.5,13c2.5.3,4.7,1.4,6.6,3.2,2.1,2,3.4,5.3,3.4,8.5s-1.3,6.4-3.4,8.6c-.5.5-.9.9-1,.9s-.4.2-.8.5c-3.5,2.4-8.2,2.4-11.7,0-.4-.3-.8-.5-.9-.5-.4-.2-1.4-1.2-2-2.1-1.7-2.5-2.4-4.6-2.4-7.3s1.2-6.3,3.4-8.5c1.7-1.7,4.1-2.9,6.4-3.2,1-.1,1.3-.1,2.4,0h0ZM10,43.5v13.8h5.2c6.5,0,6.8,0,9.4-1.3s3.6-2.3,5-4.2c1.5-2,2.2-4,2.5-7,0-1.4,0-2.6-.2-4-.1-.6-.2-1.2-.3-1.5-.2-.9-1.1-2.8-2-4.1-.6-.8-2.4-2.5-3.4-3.2-.8-.5-2.5-1.4-3.3-1.6-1.5-.5-1.7-.5-7.4-.6h-5.4v13.7h-.1ZM21.5,33c.9.3,2.8,1.2,3.5,1.7s1.8,1.7,2.4,2.5c.6.9,1.3,2.4,1.6,3.6.2.9.3,1.2.3,2.7s0,1.8-.2,2.6c-.6,2.4-1.8,4.3-3.3,5.6-1.4,1.1-2.7,1.9-4,2.3-.7.2-1,.2-4.7.3h-4v-21.6h3.9c3.6,0,3.9,0,4.7.3,0,0-.2,0-.2,0ZM35.3,43.4v1.4h19.6l-3.1,1.4c-1.7.8-3.1,1.4-3.2,1.4s-7.7,3.5-8.2,3.6c-.2,0-1.4.6-2.8,1.3l-2.5,1.1v3.2l1.8.8c1,.4,2.4,1.1,3.1,1.4.7.3,1.3.6,1.4.6s6.4,2.8,7.6,3.4c.4.2,1.8.8,3.1,1.4l2.4,1.1h-19.2v2.9h26.6v-2.8l-1.6-.7c-.9-.4-2.1-.9-2.7-1.2-1.5-.7-8.9-4-8.9-4,0,0-7.8-3.5-9.1-4.1l-.9-.4.9-.4c1.8-.8,8.1-3.7,8.2-3.7s.5-.2.9-.4,2.4-1.1,4.4-2,4.7-2.1,6.2-2.8l2.6-1.2v-3h-26.6v1.7h0Z"/>
</svg>